<svg class="icon" viewBox="0 0 1024 1024" xmlns="http://www.w3.org/2000/svg" width="128" height="128"><defs><style/></defs><path d="M512 0C229.2 0 0 229.199999 0 512c0 282.8 229.2 512 512 512 282.800001 0 512-229.2 512-512C1024 229.199999 794.800001 0 512 0zm213.460522 725.975659c-6.077249 6.077248-14.064488 9.115872-22.051727 9.115872-7.987242 0-16.061298-3.038624-22.138548-9.20269L512 556.271323 342.729752 725.888841c-6.077248 6.164066-14.151306 9.20269-22.138546 9.20269-7.98724 0-15.974479-3.038624-22.051727-9.115872-12.241313-12.154496-12.241313-31.94896-.086818-44.190273L467.896546 511.99423 298.452661 342.203074c-12.154495-12.241312-12.154495-32.035776.086818-44.190271 12.241313-12.154495 32.035777-12.154495 44.190273.086817L512 467.717141l169.270247-169.704338c12.154495-12.241313 31.948959-12.241313 44.190275-.086818 12.241313 12.154495 12.241313 31.948959.086818 44.190272L556.103454 511.99423 725.54734 681.785386c12.154495 12.241313 12.154495 32.035777-.086818 44.190273z" fill="#fff"/></svg>